<mxfile host="app.diagrams.net" modified="2023-09-18T15:36:38.015Z" agent="Mozilla/5.0 (Windows NT 10.0; Win64; x64) AppleWebKit/537.36 (KHTML, like Gecko) Chrome/116.0.0.0 Safari/537.36" etag="LNczu1jfaV-jLWzNiiPw" version="21.7.5" type="device">
  <diagram name="Page-1" id="olBinws0sFfJcGJyvKUH">
    <mxGraphModel dx="1036" dy="604" grid="1" gridSize="10" guides="1" tooltips="1" connect="1" arrows="1" fold="1" page="1" pageScale="1" pageWidth="850" pageHeight="1100" math="0" shadow="0">
      <root>
        <mxCell id="0" />
        <mxCell id="1" parent="0" />
        <mxCell id="J-_Mzo_s9zJfkdfd4AHB-1" value="" style="ellipse;html=1;shape=startState;fillColor=#000000;strokeColor=#ff0000;" vertex="1" parent="1">
          <mxGeometry x="80" y="150" width="30" height="30" as="geometry" />
        </mxCell>
        <mxCell id="J-_Mzo_s9zJfkdfd4AHB-2" value="" style="edgeStyle=orthogonalEdgeStyle;html=1;verticalAlign=bottom;endArrow=open;endSize=8;strokeColor=#ff0000;rounded=0;" edge="1" source="J-_Mzo_s9zJfkdfd4AHB-1" parent="1">
          <mxGeometry relative="1" as="geometry">
            <mxPoint x="95" y="250" as="targetPoint" />
          </mxGeometry>
        </mxCell>
        <mxCell id="J-_Mzo_s9zJfkdfd4AHB-3" value="SVN Repository" style="rounded=1;whiteSpace=wrap;html=1;arcSize=40;fontColor=#000000;fillColor=#ffffc0;strokeColor=#ff0000;" vertex="1" parent="1">
          <mxGeometry x="35" y="250" width="120" height="40" as="geometry" />
        </mxCell>
        <mxCell id="J-_Mzo_s9zJfkdfd4AHB-4" value="" style="edgeStyle=orthogonalEdgeStyle;html=1;verticalAlign=bottom;endArrow=open;endSize=8;strokeColor=#ff0000;rounded=0;" edge="1" source="J-_Mzo_s9zJfkdfd4AHB-3" parent="1">
          <mxGeometry relative="1" as="geometry">
            <mxPoint x="230" y="270" as="targetPoint" />
          </mxGeometry>
        </mxCell>
        <mxCell id="J-_Mzo_s9zJfkdfd4AHB-5" value="Checkout" style="rounded=1;whiteSpace=wrap;html=1;arcSize=40;fontColor=#000000;fillColor=#ffffc0;strokeColor=#ff0000;" vertex="1" parent="1">
          <mxGeometry x="230" y="250" width="120" height="40" as="geometry" />
        </mxCell>
        <mxCell id="J-_Mzo_s9zJfkdfd4AHB-6" value="" style="edgeStyle=orthogonalEdgeStyle;html=1;verticalAlign=bottom;endArrow=open;endSize=8;strokeColor=#ff0000;rounded=0;exitX=0.5;exitY=1;exitDx=0;exitDy=0;entryX=0.5;entryY=0;entryDx=0;entryDy=0;" edge="1" source="J-_Mzo_s9zJfkdfd4AHB-5" parent="1" target="J-_Mzo_s9zJfkdfd4AHB-9">
          <mxGeometry relative="1" as="geometry">
            <mxPoint x="370" y="270" as="targetPoint" />
          </mxGeometry>
        </mxCell>
        <mxCell id="J-_Mzo_s9zJfkdfd4AHB-9" value="Modifications" style="rounded=1;whiteSpace=wrap;html=1;arcSize=40;fontColor=#000000;fillColor=#ffffc0;strokeColor=#ff0000;" vertex="1" parent="1">
          <mxGeometry x="230" y="340" width="120" height="40" as="geometry" />
        </mxCell>
        <mxCell id="J-_Mzo_s9zJfkdfd4AHB-10" value="" style="edgeStyle=orthogonalEdgeStyle;html=1;verticalAlign=bottom;endArrow=open;endSize=8;strokeColor=#ff0000;rounded=0;exitX=0.5;exitY=1;exitDx=0;exitDy=0;entryX=0.5;entryY=0;entryDx=0;entryDy=0;" edge="1" source="J-_Mzo_s9zJfkdfd4AHB-9" parent="1" target="J-_Mzo_s9zJfkdfd4AHB-11">
          <mxGeometry relative="1" as="geometry">
            <mxPoint x="540" y="270" as="targetPoint" />
          </mxGeometry>
        </mxCell>
        <mxCell id="J-_Mzo_s9zJfkdfd4AHB-11" value="Testing" style="rounded=1;whiteSpace=wrap;html=1;arcSize=40;fontColor=#000000;fillColor=#ffffc0;strokeColor=#ff0000;" vertex="1" parent="1">
          <mxGeometry x="230" y="440" width="120" height="40" as="geometry" />
        </mxCell>
        <mxCell id="J-_Mzo_s9zJfkdfd4AHB-12" value="" style="edgeStyle=orthogonalEdgeStyle;html=1;verticalAlign=bottom;endArrow=open;endSize=8;strokeColor=#ff0000;rounded=0;" edge="1" source="J-_Mzo_s9zJfkdfd4AHB-11" parent="1">
          <mxGeometry relative="1" as="geometry">
            <mxPoint x="520" y="520" as="targetPoint" />
          </mxGeometry>
        </mxCell>
        <mxCell id="J-_Mzo_s9zJfkdfd4AHB-15" value="" style="shape=line;html=1;strokeWidth=6;strokeColor=#ff0000;" vertex="1" parent="1">
          <mxGeometry x="420" y="520" width="200" height="10" as="geometry" />
        </mxCell>
        <mxCell id="J-_Mzo_s9zJfkdfd4AHB-16" value="" style="edgeStyle=orthogonalEdgeStyle;html=1;verticalAlign=bottom;endArrow=open;endSize=8;strokeColor=#ff0000;rounded=0;exitX=0.25;exitY=0.5;exitDx=0;exitDy=0;exitPerimeter=0;" edge="1" source="J-_Mzo_s9zJfkdfd4AHB-15" parent="1">
          <mxGeometry relative="1" as="geometry">
            <mxPoint x="470" y="600" as="targetPoint" />
          </mxGeometry>
        </mxCell>
        <mxCell id="J-_Mzo_s9zJfkdfd4AHB-17" value="" style="edgeStyle=orthogonalEdgeStyle;html=1;verticalAlign=bottom;endArrow=open;endSize=8;strokeColor=#ff0000;rounded=0;exitX=0.75;exitY=0.5;exitDx=0;exitDy=0;exitPerimeter=0;" edge="1" parent="1" source="J-_Mzo_s9zJfkdfd4AHB-15">
          <mxGeometry relative="1" as="geometry">
            <mxPoint x="570" y="600" as="targetPoint" />
            <mxPoint x="590" y="540" as="sourcePoint" />
          </mxGeometry>
        </mxCell>
        <mxCell id="J-_Mzo_s9zJfkdfd4AHB-18" value="Firefox" style="rounded=1;whiteSpace=wrap;html=1;arcSize=40;fontColor=#000000;fillColor=#ffffc0;strokeColor=#ff0000;" vertex="1" parent="1">
          <mxGeometry x="400" y="600" width="120" height="40" as="geometry" />
        </mxCell>
        <mxCell id="J-_Mzo_s9zJfkdfd4AHB-19" value="" style="edgeStyle=orthogonalEdgeStyle;html=1;verticalAlign=bottom;endArrow=open;endSize=8;strokeColor=#ff0000;rounded=0;" edge="1" source="J-_Mzo_s9zJfkdfd4AHB-18" parent="1">
          <mxGeometry relative="1" as="geometry">
            <mxPoint x="460" y="700" as="targetPoint" />
          </mxGeometry>
        </mxCell>
        <mxCell id="J-_Mzo_s9zJfkdfd4AHB-20" value="Internet Explorer" style="rounded=1;whiteSpace=wrap;html=1;arcSize=40;fontColor=#000000;fillColor=#ffffc0;strokeColor=#ff0000;" vertex="1" parent="1">
          <mxGeometry x="530" y="600" width="120" height="40" as="geometry" />
        </mxCell>
        <mxCell id="J-_Mzo_s9zJfkdfd4AHB-21" value="" style="edgeStyle=orthogonalEdgeStyle;html=1;verticalAlign=bottom;endArrow=open;endSize=8;strokeColor=#ff0000;rounded=0;" edge="1" source="J-_Mzo_s9zJfkdfd4AHB-20" parent="1">
          <mxGeometry relative="1" as="geometry">
            <mxPoint x="590" y="700" as="targetPoint" />
          </mxGeometry>
        </mxCell>
        <mxCell id="J-_Mzo_s9zJfkdfd4AHB-22" value="" style="rhombus;whiteSpace=wrap;html=1;fontColor=#000000;fillColor=#ffffc0;strokeColor=#ff0000;" vertex="1" parent="1">
          <mxGeometry x="570" y="700" width="40" height="30" as="geometry" />
        </mxCell>
        <mxCell id="J-_Mzo_s9zJfkdfd4AHB-23" value="Success" style="edgeStyle=orthogonalEdgeStyle;html=1;align=left;verticalAlign=bottom;endArrow=open;endSize=8;strokeColor=#ff0000;rounded=0;exitX=0;exitY=0.5;exitDx=0;exitDy=0;" edge="1" source="J-_Mzo_s9zJfkdfd4AHB-22" parent="1">
          <mxGeometry x="-1" relative="1" as="geometry">
            <mxPoint x="540" y="810" as="targetPoint" />
            <Array as="points">
              <mxPoint x="540" y="715" />
              <mxPoint x="540" y="780" />
            </Array>
            <mxPoint as="offset" />
          </mxGeometry>
        </mxCell>
        <mxCell id="J-_Mzo_s9zJfkdfd4AHB-24" value="Fail" style="edgeStyle=orthogonalEdgeStyle;html=1;align=left;verticalAlign=top;endArrow=open;endSize=8;strokeColor=#ff0000;rounded=0;entryX=1;entryY=0;entryDx=0;entryDy=0;" edge="1" source="J-_Mzo_s9zJfkdfd4AHB-22" parent="1" target="J-_Mzo_s9zJfkdfd4AHB-9">
          <mxGeometry x="-1" relative="1" as="geometry">
            <mxPoint x="720" y="310" as="targetPoint" />
            <Array as="points">
              <mxPoint x="721" y="715" />
              <mxPoint x="721" y="340" />
            </Array>
          </mxGeometry>
        </mxCell>
        <mxCell id="J-_Mzo_s9zJfkdfd4AHB-25" value="" style="rhombus;whiteSpace=wrap;html=1;fontColor=#000000;fillColor=#ffffc0;strokeColor=#ff0000;" vertex="1" parent="1">
          <mxGeometry x="440" y="700" width="40" height="30" as="geometry" />
        </mxCell>
        <mxCell id="J-_Mzo_s9zJfkdfd4AHB-26" value="Success" style="edgeStyle=orthogonalEdgeStyle;html=1;align=left;verticalAlign=bottom;endArrow=open;endSize=8;strokeColor=#ff0000;rounded=0;exitX=1;exitY=0.5;exitDx=0;exitDy=0;" edge="1" source="J-_Mzo_s9zJfkdfd4AHB-25" parent="1">
          <mxGeometry x="-1" relative="1" as="geometry">
            <mxPoint x="490" y="810" as="targetPoint" />
            <Array as="points">
              <mxPoint x="491" y="715" />
            </Array>
          </mxGeometry>
        </mxCell>
        <mxCell id="J-_Mzo_s9zJfkdfd4AHB-27" value="Fail" style="edgeStyle=orthogonalEdgeStyle;html=1;align=left;verticalAlign=top;endArrow=open;endSize=8;strokeColor=#ff0000;rounded=0;entryX=1;entryY=0.5;entryDx=0;entryDy=0;" edge="1" source="J-_Mzo_s9zJfkdfd4AHB-25" parent="1" target="J-_Mzo_s9zJfkdfd4AHB-9">
          <mxGeometry x="-1" relative="1" as="geometry">
            <mxPoint x="370" y="360" as="targetPoint" />
            <Array as="points">
              <mxPoint x="371" y="715" />
              <mxPoint x="371" y="360" />
            </Array>
          </mxGeometry>
        </mxCell>
        <mxCell id="J-_Mzo_s9zJfkdfd4AHB-28" value="" style="shape=line;html=1;strokeWidth=6;strokeColor=#ff0000;" vertex="1" parent="1">
          <mxGeometry x="425" y="810" width="200" height="10" as="geometry" />
        </mxCell>
        <mxCell id="J-_Mzo_s9zJfkdfd4AHB-29" value="" style="edgeStyle=orthogonalEdgeStyle;html=1;verticalAlign=bottom;endArrow=open;endSize=8;strokeColor=#ff0000;rounded=0;" edge="1" source="J-_Mzo_s9zJfkdfd4AHB-28" parent="1">
          <mxGeometry relative="1" as="geometry">
            <mxPoint x="525" y="890" as="targetPoint" />
          </mxGeometry>
        </mxCell>
        <mxCell id="J-_Mzo_s9zJfkdfd4AHB-30" value="" style="rhombus;whiteSpace=wrap;html=1;fontColor=#000000;fillColor=#ffffc0;strokeColor=#ff0000;" vertex="1" parent="1">
          <mxGeometry x="505" y="890" width="40" height="30" as="geometry" />
        </mxCell>
        <mxCell id="J-_Mzo_s9zJfkdfd4AHB-31" value="" style="edgeStyle=orthogonalEdgeStyle;html=1;align=left;verticalAlign=bottom;endArrow=open;endSize=8;strokeColor=#ff0000;rounded=0;" edge="1" source="J-_Mzo_s9zJfkdfd4AHB-30" parent="1">
          <mxGeometry x="-1" y="-16" relative="1" as="geometry">
            <mxPoint x="460" y="970" as="targetPoint" />
            <mxPoint x="15" y="11" as="offset" />
          </mxGeometry>
        </mxCell>
        <mxCell id="J-_Mzo_s9zJfkdfd4AHB-32" value="" style="edgeStyle=orthogonalEdgeStyle;html=1;align=left;verticalAlign=top;endArrow=open;endSize=8;strokeColor=#ff0000;rounded=0;exitX=1;exitY=0.5;exitDx=0;exitDy=0;entryX=1;entryY=0.5;entryDx=0;entryDy=0;" edge="1" source="J-_Mzo_s9zJfkdfd4AHB-30" parent="1" target="J-_Mzo_s9zJfkdfd4AHB-41">
          <mxGeometry x="-1" relative="1" as="geometry">
            <mxPoint x="410" y="1170" as="targetPoint" />
            <Array as="points">
              <mxPoint x="591" y="905" />
              <mxPoint x="591" y="1150" />
            </Array>
          </mxGeometry>
        </mxCell>
        <mxCell id="J-_Mzo_s9zJfkdfd4AHB-36" value="Generate Patch file" style="rounded=1;whiteSpace=wrap;html=1;arcSize=40;fontColor=#000000;fillColor=#ffffc0;strokeColor=#ff0000;" vertex="1" parent="1">
          <mxGeometry x="420" y="970" width="100" height="40" as="geometry" />
        </mxCell>
        <mxCell id="J-_Mzo_s9zJfkdfd4AHB-37" value="" style="edgeStyle=orthogonalEdgeStyle;html=1;verticalAlign=bottom;endArrow=open;endSize=8;strokeColor=#ff0000;rounded=0;exitX=0;exitY=0.5;exitDx=0;exitDy=0;entryX=0.5;entryY=0;entryDx=0;entryDy=0;" edge="1" source="J-_Mzo_s9zJfkdfd4AHB-36" parent="1" target="J-_Mzo_s9zJfkdfd4AHB-39">
          <mxGeometry relative="1" as="geometry">
            <mxPoint x="290" y="990" as="targetPoint" />
          </mxGeometry>
        </mxCell>
        <mxCell id="J-_Mzo_s9zJfkdfd4AHB-39" value="Apply Modifications" style="rounded=1;whiteSpace=wrap;html=1;arcSize=40;fontColor=#000000;fillColor=#ffffc0;strokeColor=#ff0000;" vertex="1" parent="1">
          <mxGeometry x="230" y="1030" width="120" height="40" as="geometry" />
        </mxCell>
        <mxCell id="J-_Mzo_s9zJfkdfd4AHB-40" value="" style="edgeStyle=orthogonalEdgeStyle;html=1;verticalAlign=bottom;endArrow=open;endSize=8;strokeColor=#ff0000;rounded=0;" edge="1" source="J-_Mzo_s9zJfkdfd4AHB-39" parent="1">
          <mxGeometry relative="1" as="geometry">
            <mxPoint x="290" y="1130" as="targetPoint" />
          </mxGeometry>
        </mxCell>
        <mxCell id="J-_Mzo_s9zJfkdfd4AHB-41" value="Commit Modifications" style="rounded=1;whiteSpace=wrap;html=1;arcSize=40;fontColor=#000000;fillColor=#ffffc0;strokeColor=#ff0000;" vertex="1" parent="1">
          <mxGeometry x="230" y="1130" width="120" height="40" as="geometry" />
        </mxCell>
        <mxCell id="J-_Mzo_s9zJfkdfd4AHB-42" value="" style="edgeStyle=orthogonalEdgeStyle;html=1;verticalAlign=bottom;endArrow=open;endSize=8;strokeColor=#ff0000;rounded=0;" edge="1" source="J-_Mzo_s9zJfkdfd4AHB-41" parent="1">
          <mxGeometry relative="1" as="geometry">
            <mxPoint x="290" y="1230" as="targetPoint" />
          </mxGeometry>
        </mxCell>
        <mxCell id="J-_Mzo_s9zJfkdfd4AHB-43" value="" style="ellipse;html=1;shape=endState;fillColor=#000000;strokeColor=#ff0000;" vertex="1" parent="1">
          <mxGeometry x="275" y="1230" width="30" height="30" as="geometry" />
        </mxCell>
        <mxCell id="J-_Mzo_s9zJfkdfd4AHB-44" value="" style="rounded=0;whiteSpace=wrap;html=1;opacity=30;" vertex="1" parent="1">
          <mxGeometry x="10" y="120" width="160" height="1190" as="geometry" />
        </mxCell>
        <mxCell id="J-_Mzo_s9zJfkdfd4AHB-45" value="" style="rounded=0;whiteSpace=wrap;html=1;opacity=30;" vertex="1" parent="1">
          <mxGeometry x="170" y="120" width="220" height="1190" as="geometry" />
        </mxCell>
        <mxCell id="J-_Mzo_s9zJfkdfd4AHB-46" value="" style="rounded=0;whiteSpace=wrap;html=1;opacity=30;" vertex="1" parent="1">
          <mxGeometry x="390" y="120" width="370" height="1190" as="geometry" />
        </mxCell>
        <mxCell id="J-_Mzo_s9zJfkdfd4AHB-48" value="Subversion Repository" style="text;html=1;strokeColor=none;fillColor=none;align=center;verticalAlign=middle;whiteSpace=wrap;rounded=0;" vertex="1" parent="1">
          <mxGeometry x="25" y="120" width="130" height="30" as="geometry" />
        </mxCell>
        <mxCell id="J-_Mzo_s9zJfkdfd4AHB-49" value="Developer" style="text;html=1;strokeColor=none;fillColor=none;align=center;verticalAlign=middle;whiteSpace=wrap;rounded=0;" vertex="1" parent="1">
          <mxGeometry x="245" y="120" width="60" height="30" as="geometry" />
        </mxCell>
        <mxCell id="J-_Mzo_s9zJfkdfd4AHB-50" value="Browser" style="text;html=1;strokeColor=none;fillColor=none;align=center;verticalAlign=middle;whiteSpace=wrap;rounded=0;" vertex="1" parent="1">
          <mxGeometry x="530" y="120" width="60" height="30" as="geometry" />
        </mxCell>
      </root>
    </mxGraphModel>
  </diagram>
</mxfile>
